<mxfile host="app.diagrams.net" modified="2023-09-11T18:08:47.058Z" agent="Mozilla/5.0 (Windows NT 10.0; Win64; x64) AppleWebKit/537.36 (KHTML, like Gecko) Chrome/116.0.0.0 Safari/537.36" etag="y6fExZmjlorzwwZQ-O9c" version="21.7.2" type="github">
  <diagram name="Page-1" id="bSF6oqP1664rIvyqQIz2">
    <mxGraphModel dx="2368" dy="1766" grid="1" gridSize="10" guides="1" tooltips="1" connect="1" arrows="1" fold="1" page="1" pageScale="1" pageWidth="850" pageHeight="1100" math="0" shadow="0">
      <root>
        <mxCell id="0" />
        <mxCell id="1" parent="0" />
        <mxCell id="2" value="Start" style="whiteSpace=wrap;strokeWidth=2;" parent="1" vertex="1">
          <mxGeometry y="129" width="50" height="33" as="geometry" />
        </mxCell>
        <mxCell id="3" value="Fetch Data" style="rounded=1;absoluteArcSize=1;arcSize=14;whiteSpace=wrap;strokeWidth=2;" parent="1" vertex="1">
          <mxGeometry x="100" y="129" width="93" height="33" as="geometry" />
        </mxCell>
        <mxCell id="4" value="Data Exists?" style="rhombus;strokeWidth=2;whiteSpace=wrap;" parent="1" vertex="1">
          <mxGeometry x="243" y="79" width="133" height="133" as="geometry" />
        </mxCell>
        <mxCell id="5" value="Iterate over Data" style="rounded=1;absoluteArcSize=1;arcSize=14;whiteSpace=wrap;strokeWidth=2;" parent="1" vertex="1">
          <mxGeometry x="449" y="87" width="138" height="33" as="geometry" />
        </mxCell>
        <mxCell id="6" value="Mode Calculation" style="rhombus;strokeWidth=2;whiteSpace=wrap;" parent="1" vertex="1">
          <mxGeometry x="638" y="18" width="172" height="172" as="geometry" />
        </mxCell>
        <mxCell id="7" value="Frequency Calculation" style="rhombus;strokeWidth=2;whiteSpace=wrap;" parent="1" vertex="1">
          <mxGeometry x="947" width="208" height="208" as="geometry" />
        </mxCell>
        <mxCell id="8" value="End" style="whiteSpace=wrap;strokeWidth=2;" parent="1" vertex="1">
          <mxGeometry x="1327" y="87" width="41" height="33" as="geometry" />
        </mxCell>
        <mxCell id="9" value="End" style="whiteSpace=wrap;strokeWidth=2;" parent="1" vertex="1">
          <mxGeometry x="498" y="171" width="41" height="33" as="geometry" />
        </mxCell>
        <mxCell id="10" value="" style="curved=1;startArrow=none;endArrow=block;exitX=1.0012812805175781;exitY=0.5094695813728102;entryX=0.0006888604933215726;entryY=0.5094695813728102;" parent="1" source="2" target="3" edge="1">
          <mxGeometry relative="1" as="geometry">
            <Array as="points" />
          </mxGeometry>
        </mxCell>
        <mxCell id="11" value="" style="curved=1;startArrow=none;endArrow=block;exitX=0.9998824416950185;exitY=0.5094695813728102;entryX=-0.00008220242378406955;entryY=0.502349595378216;" parent="1" source="3" target="4" edge="1">
          <mxGeometry relative="1" as="geometry">
            <Array as="points" />
          </mxGeometry>
        </mxCell>
        <mxCell id="12" value="Yes" style="curved=1;startArrow=none;endArrow=block;exitX=1.00017627916838;exitY=0.3003450675540464;entryX=0.00343076733575351;entryY=0.5185604673443418;" parent="1" source="4" target="5" edge="1">
          <mxGeometry relative="1" as="geometry">
            <Array as="points">
              <mxPoint x="413" y="104" />
            </Array>
          </mxGeometry>
        </mxCell>
        <mxCell id="13" value="" style="curved=1;startArrow=none;endArrow=block;exitX=1.0048800205838853;exitY=0.5185604673443418;entryX=-0.0018985881361850473;entryY=0.5006540431532749;" parent="1" source="5" target="6" edge="1">
          <mxGeometry relative="1" as="geometry">
            <Array as="points" />
          </mxGeometry>
        </mxCell>
        <mxCell id="14" value="Mode Found" style="curved=1;startArrow=none;endArrow=block;exitX=0.999990929004758;exitY=0.5006540431532749;entryX=-0.001990666756263146;entryY=0.5005408433767465;" parent="1" source="6" target="7" edge="1">
          <mxGeometry relative="1" as="geometry">
            <Array as="points" />
          </mxGeometry>
        </mxCell>
        <mxCell id="15" value="Frequency Found" style="curved=1;startArrow=none;endArrow=block;exitX=0.9990910199972299;exitY=0.5005408433767465;entryX=0.007278907589796112;entryY=0.5185604673443418;" parent="1" source="7" target="8" edge="1">
          <mxGeometry relative="1" as="geometry">
            <Array as="points" />
          </mxGeometry>
        </mxCell>
        <mxCell id="16" value="No" style="curved=1;startArrow=none;endArrow=block;exitX=1.00017627916838;exitY=0.7043541232023856;entryX=-0.0011050061481754955;entryY=0.5003786954012784;" parent="1" source="4" target="9" edge="1">
          <mxGeometry relative="1" as="geometry">
            <Array as="points">
              <mxPoint x="413" y="188" />
            </Array>
          </mxGeometry>
        </mxCell>
        <mxCell id="BLigEJ9rnyAZ-4hv5y_d-16" value="" style="dashed=0;outlineConnect=0;html=1;align=center;labelPosition=center;verticalLabelPosition=bottom;verticalAlign=top;shape=mxgraph.webicons.github;gradientColor=#DFDEDE" vertex="1" parent="1">
          <mxGeometry x="470" y="-40" width="50" height="62.4" as="geometry" />
        </mxCell>
        <mxCell id="BLigEJ9rnyAZ-4hv5y_d-17" value="&lt;font style=&quot;font-size: 36px;&quot;&gt;@Ansumanbhujabal&lt;/font&gt;" style="text;strokeColor=none;align=center;fillColor=none;html=1;verticalAlign=middle;whiteSpace=wrap;rounded=0;" vertex="1" parent="1">
          <mxGeometry x="540" y="-28.799999999999997" width="290" height="40" as="geometry" />
        </mxCell>
      </root>
    </mxGraphModel>
  </diagram>
</mxfile>
